# File created by Blade
# Date/Time:  Wed Jan 28 16:58:26 2015
#---------------------------------------------------------
:version 1.10
:name HOM
:units
  mass 1.0
  length 1.000000
  angle deg
:documentation
     Acclaim Skeleton File
:root
   axis xyz
   order TX TY TZ RX RY RZ
   position 0.000000 0.000000 0.000000
   orientation 0 0 0
:bonedata
   begin
      id 1
      name Spine_dum
      direction 0.000000 1.000000 0.000000
      length 9.621153
      axis 0.0 0.0 0.0 xyz
   end
   begin
      id 2
      name LeftUpLeg_dum
      direction 1.000000 0.000000 0.000000
      length 2.700595
      axis 0.0 0.0 0.0 xyz
   end
   begin
      id 3
      name RightUpLeg_dum
      direction -1.000000 0.000000 0.000000
      length 2.700595
      axis 0.0 0.0 0.0 xyz
   end
   begin
      id 4
      name Spine
      direction 0.000000 1.000000 0.000000
      length 0.000000
      axis 0.0 0.0 0.0 xyz
      dof rx ry rz
   end
   begin
      id 5
      name Spine_dum1
      direction 0.000000 1.000000 0.000000
      length 12.771951
      axis 0.0 0.0 0.0 xyz
   end
   begin
      id 6
      name Spine_dum2
      direction 0.000000 1.000000 0.000000
      length 7.400569
      axis 0.0 0.0 0.0 xyz
   end
   begin
      id 7
      name Spine_dum3
      direction 0.000000 1.000000 0.000000
      length 7.400569
      axis 0.0 0.0 0.0 xyz
   end
   begin
      id 8
      name Head
      direction 0.000000 1.000000 0.000000
      length 4.527550
      axis 0.0 0.0 0.0 xyz
      dof rx ry rz
   end
   begin
      id 9
      name LeftShoulder
      direction 1.000000 0.000000 0.000000
      length 8.349299
      axis 0.0 0.0 -90.0 xyz
      dof rx ry rz
   end
   begin
      id 10
      name LeftArm
      direction 1.000000 0.000000 0.000000
      length 11.334839
      axis 0.0 0.0 -90.0 xyz
      dof rx ry rz
   end
   begin
      id 11
      name LeftForeArm
      direction 1.000000 0.000000 0.000000
      length 9.694182
      axis 0.0 0.0 -90.0 xyz
      dof ry rz rx
   end
   begin
      id 12
      name LeftHand
      direction 0.000000 0.000000 0.000000
      length 0.000000
      axis 0.0 0.0 -90.0 xyz
      dof rx ry rz
   end
   begin
      id 13
      name LeftHand_dum1
      direction 0.000000 0.000000 0.000000
      length 0.000000
      axis 0.0 0.0 -90.0 xyz
   end
   begin
      id 14
      name LeftHand_dum2
      direction 1.000000 0.000000 0.000000
      length 3.937000
      axis 0.0 0.0 -90.0 xyz
   end
   begin
      id 15
      name LeftHandThumb1
      direction 0.000000 0.000000 1.000000
      length 3.937000
      axis 0.0 0.0 -90.0 xyz
      dof rx rz ry
   end
   begin
      id 16
      name RightShoulder
      direction -1.000000 0.000000 0.000000
      length 8.349299
      axis 0.0 0.0 90.0 xyz
      dof rx ry rz
   end
   begin
      id 17
      name RightArm
      direction -1.000000 0.000000 0.000000
      length 11.334839
      axis 0.0 0.0 90.0 xyz
      dof rx ry rz
   end
   begin
      id 18
      name RightForeArm
      direction -1.000000 0.000000 0.000000
      length 9.694182
      axis 0.0 0.0 90.0 xyz
      dof ry rz rx
   end
   begin
      id 19
      name RightHand
      direction 0.000000 0.000000 0.000000
      length 0.000000
      axis 0.0 0.0 90.0 xyz
      dof rx ry rz
   end
   begin
      id 20
      name RightHand_dum1
      direction 0.000000 0.000000 0.000000
      length 0.000000
      axis 0.0 0.0 90.0 xyz
   end
   begin
      id 21
      name RightHand_dum2
      direction -1.000000 0.000000 0.000000
      length 3.937000
      axis 0.0 0.0 90.0 xyz
   end
   begin
      id 22
      name RightHandThumb1
      direction 0.000000 0.000000 1.000000
      length 3.937000
      axis 0.0 0.0 90.0 xyz
      dof rx rz ry
   end
   begin
      id 23
      name LeftUpLeg
      direction 0.000000 -1.000000 0.000000
      length 16.757176
      axis 0.0 0.0 0.0 xyz
      dof rx ry rz
   end
   begin
      id 24
      name LeftLeg
      direction 0.000000 -1.000000 0.000000
      length 16.759153
      axis 0.0 0.0 0.0 xyz
      dof rx ry rz
   end
   begin
      id 25
      name LeftFoot
      direction 0.000000 -0.258819 0.965926
      length 5.841289
      axis 15.0 0.0 0.0 xyz
      dof rx ry rz
   end
   begin
      id 26
      name LeftToeBase
      direction 0.000000 0.000000 1.000000
      length 2.952750
      axis 0.0 0.0 0.0 xyz
      dof rx ry rz
   end
   begin
      id 27
      name RightUpLeg
      direction 0.000000 -1.000000 0.000000
      length 16.757176
      axis 0.0 0.0 0.0 xyz
      dof rx ry rz
   end
   begin
      id 28
      name RightLeg
      direction 0.000000 -1.000000 0.000000
      length 16.759153
      axis 0.0 0.0 0.0 xyz
      dof rx ry rz
   end
   begin
      id 29
      name RightFoot
      direction 0.000000 -0.258819 0.965926
      length 5.841289
      axis 15.0 0.0 0.0 xyz
      dof rx ry rz
   end
   begin
      id 30
      name RightToeBase
      direction 0.000000 0.000000 1.000000
      length 2.952750
      axis 0.0 0.0 0.0 xyz
      dof rx ry rz
   end
:hierarchy
   begin
      root Spine_dum LeftUpLeg_dum RightUpLeg_dum
      Spine_dum Spine
      LeftUpLeg_dum LeftUpLeg
      RightUpLeg_dum RightUpLeg
      Spine Spine_dum1 Spine_dum2 Spine_dum3
      Spine_dum1 Head
      Spine_dum2 LeftShoulder
      Spine_dum3 RightShoulder
      LeftShoulder LeftArm
      LeftArm LeftForeArm
      LeftForeArm LeftHand
      LeftHand LeftHand_dum1 LeftHand_dum2
      LeftHand_dum1 LeftHandThumb1
      RightShoulder RightArm
      RightArm RightForeArm
      RightForeArm RightHand
      RightHand RightHand_dum1 RightHand_dum2
      RightHand_dum1 RightHandThumb1
      LeftUpLeg LeftLeg
      LeftLeg LeftFoot
      LeftFoot LeftToeBase
      RightUpLeg RightLeg
      RightLeg RightFoot
      RightFoot RightToeBase
   end

# File created by Blade
# Date/Time:  Wed Jan 28 16:58:32 2015
# Frame Rate: 120.000 fps
#------------------------------------------------------
:FULLY-SPECIFIED
:DEGREES
537
root 11.704843 35.966991 -17.998293 148.158105 -52.284797 -161.914077
Spine 42.459344 -20.250679 8.315882
Head 21.864182 9.286224 25.106525
LeftShoulder 3.595533 -8.884308 25.895565
LeftArm 69.482037 -13.875768 -63.108432
LeftForeArm -29.463985 -0.000000 40.290424
LeftHand 5.242302 -0.000000 21.318456
LeftHandThumb1 -26.253704 0.000000 33.147579
RightShoulder -13.997929 -7.882174 -4.379746
RightArm 19.140224 -37.245529 70.994793
RightForeArm -7.447932 -0.000000 31.460352
RightHand -12.330742 -0.000000 12.088958
RightHandThumb1 -24.326973 -0.000000 -32.862282
LeftUpLeg 11.598405 13.390304 11.615829
LeftLeg 22.068792 -0.000000 -0.000000
LeftFoot -15.880874 -8.165645 1.868765
LeftToeBase 8.754429 -0.000000 -0.000000
RightUpLeg -86.066369 12.824017 24.300560
RightLeg 128.992270 -0.000000 -0.000000
RightFoot -0.310179 -14.913482 4.614441
RightToeBase 0.110362 -0.000000 -0.000000
538
root 11.701431 35.960163 -18.011755 148.033698 -52.112065 -161.953635
Spine 42.626841 -20.232810 8.268739
Head 22.024261 9.170214 25.071734
LeftShoulder 3.583300 -8.825351 25.861733
LeftArm 69.327265 -14.000202 -62.837673
LeftForeArm -29.692021 -0.000000 40.356205
LeftHand 5.211989 -0.000000 21.389745
LeftHandThumb1 -26.253704 0.000000 33.147579
RightShoulder -14.037983 -7.927642 -4.348478
RightArm 19.213795 -37.265744 71.038791
RightForeArm -7.415716 -0.000000 31.576764
RightHand -12.513874 -0.000000 12.457038
RightHandThumb1 -24.326973 -0.000000 -32.862282
LeftUpLeg 11.775259 13.574869 11.737361
LeftLeg 22.155613 -0.000000 -0.000000
LeftFoot -15.997178 -8.040285 1.818287
LeftToeBase 8.851399 -0.000000 -0.000000
RightUpLeg -86.111395 12.789047 24.373352
RightLeg 128.835598 -0.000000 -0.000000
RightFoot -0.385054 -15.119576 4.686145
RightToeBase 0.044772 -0.000000 -0.000000
539
root 11.703737 35.953168 -18.016822 147.980300 -51.965374 -162.023564
Spine 42.785301 -20.248440 8.166655
Head 22.147396 9.159662 25.026246
LeftShoulder 3.490665 -8.487401 25.798900
LeftArm 69.473674 -14.240745 -62.574077
LeftForeArm -29.936387 -0.000000 40.370576
LeftHand 5.220399 -0.000000 21.378416
LeftHandThumb1 -26.253704 0.000000 33.147579
RightShoulder -13.963331 -7.763349 -4.377363
RightArm 18.962806 -37.368902 71.334149
RightForeArm -7.822893 -0.000000 31.568789
RightHand -12.216304 -0.000000 12.039947
RightHandThumb1 -24.326973 -0.000000 -32.862282
LeftUpLeg 11.873494 13.652635 11.781772
LeftLeg 22.241927 -0.000000 -0.000000
LeftFoot -16.068381 -7.900731 1.755768
LeftToeBase 8.880346 -0.000000 -0.000000
RightUpLeg -86.162921 12.749612 24.374444
RightLeg 128.690164 -0.000000 -0.000000
RightFoot -0.446412 -15.313221 4.707605
RightToeBase 0.129990 -0.000000 -0.000000
540
root 11.698712 35.940477 -18.021229 147.996593 -51.811397 -162.159005
Spine 42.885328 -20.252423 8.044132
Head 22.299533 9.152888 24.953184
LeftShoulder 3.363338 -8.342496 25.731285
LeftArm 69.433336 -14.346857 -62.362693
LeftForeArm -30.094153 -0.000000 40.376203
LeftHand 5.142512 -0.000000 21.305958
LeftHandThumb1 -26.253704 0.000000 33.147579
RightShoulder -13.956633 -7.735472 -4.356322
RightArm 18.810578 -37.232640 71.552734
RightForeArm -7.683326 -0.000000 31.749424
RightHand -12.473086 0.000000 12.663002
RightHandThumb1 -24.326973 -0.000000 -32.862282
LeftUpLeg 11.960593 13.709024 11.785429
LeftLeg 22.355148 -0.000000 -0.000000
LeftFoot -16.197516 -7.837337 1.573705
LeftToeBase 9.059872 -0.000000 -0.000000
RightUpLeg -86.215325 12.698107 24.332405
RightLeg 128.608407 -0.000000 -0.000000
RightFoot -0.425554 -15.455161 4.669410
RightToeBase 0.124654 -0.000000 -0.000000
541
root 11.696599 35.924490 -18.032339 147.991813 -51.614231 -162.219743
Spine 42.899127 -20.268578 8.014664
Head 22.488619 9.139798 24.820853
LeftShoulder 3.224625 -8.203965 25.655971
LeftArm 69.353819 -14.419472 -62.247114
LeftForeArm -30.136839 -0.000000 40.384236
LeftHand 5.062057 -0.000000 21.208503
LeftHandThumb1 -26.253704 0.000000 33.147579
RightShoulder -13.985202 -7.877505 -4.316913
RightArm 18.929778 -37.441121 71.508577
RightForeArm -8.064887 -0.000000 31.770097
RightHand -12.286640 -0.000000 12.006358
RightHandThumb1 -24.326973 -0.000000 -32.862282
LeftUpLeg 12.163786 13.541956 11.779996
LeftLeg 22.159130 -0.000000 -0.000000
LeftFoot -16.426386 -7.657327 1.363771
LeftToeBase 9.439434 -0.000000 -0.000000
RightUpLeg -86.256383 12.677707 24.370363
RightLeg 128.528725 -0.000000 -0.000000
RightFoot -0.372863 -15.601477 4.609568
RightToeBase 0.140000 -0.000000 -0.000000
542
root 11.693304 35.906149 -18.040454 148.025806 -51.393074 -162.280103
Spine 42.850117 -20.304207 8.016465
Head 22.701039 9.185972 24.664194
LeftShoulder 3.056969 -8.065433 25.549936
LeftArm 69.263748 -14.465498 -62.179602
LeftForeArm -30.280055 -0.000000 40.372169
LeftHand 5.077846 -0.000000 21.123566
LeftHandThumb1 -26.253704 0.000000 33.147579
RightShoulder -14.023126 -7.893580 -4.344868
RightArm 18.843676 -37.357710 71.599245
RightForeArm -7.429456 -0.000000 31.890827
RightHand -12.259998 -0.000000 12.890555
RightHandThumb1 -24.326973 -0.000000 -32.862282
LeftUpLeg 12.332945 13.454576 11.809342
LeftLeg 21.985443 -0.000000 -0.000000
LeftFoot -16.670404 -7.600404 1.113185
LeftToeBase 9.827229 -0.000000 -0.000000
RightUpLeg -86.274067 12.680689 24.357633
RightLeg 128.495951 -0.000000 -0.000000
RightFoot -0.414790 -15.627612 4.621912
RightToeBase -0.112273 -0.000000 0.000000
543
root 11.686027 35.881177 -18.052846 148.144948 -51.131123 -162.409329
Spine 42.686353 -20.279096 8.050528
Head 23.000121 9.200041 24.418006
LeftShoulder 2.927586 -7.855388 25.373695
LeftArm 69.188977 -14.509574 -62.066289
LeftForeArm -30.428795 -0.000000 40.355052
LeftHand 5.086131 -0.000000 21.095317
LeftHandThumb1 -26.253704 0.000000 33.147579
RightShoulder -14.061214 -8.110283 -4.352897
RightArm 18.969215 -37.698496 71.554364
RightForeArm -8.141790 0.000000 31.749550
RightHand -11.890191 0.000000 11.673350
RightHandThumb1 -24.326973 -0.000000 -32.862282
LeftUpLeg 12.535509 13.460220 11.830696
LeftLeg 21.743062 -0.000000 -0.000000
LeftFoot -16.984076 -7.541106 0.908457
LeftToeBase 10.348726 -0.000000 -0.000000
RightUpLeg -86.283667 12.728342 24.359115
RightLeg 128.501062 -0.000000 -0.000000
RightFoot -0.438592 -15.660871 4.767360
RightToeBase -0.213637 -0.000000 0.000000
544
root 11.684096 35.852783 -18.059508 148.358680 -50.833008 -162.616462
Spine 42.518454 -20.144847 8.033897
Head 23.271882 9.261892 24.285961
LeftShoulder 2.796223 -7.766258 25.278454
LeftArm 69.030056 -14.493801 -62.025711
LeftForeArm -30.397657 -0.000000 40.346893
LeftHand 5.054212 0.000000 21.074465
LeftHandThumb1 -26.253704 0.000000 33.147579
RightShoulder -14.201545 -8.210510 -4.293850
RightArm 19.031407 -37.893445 71.479479
RightForeArm -8.029704 -0.000000 31.755807
RightHand -11.893544 -0.000000 11.741771
RightHandThumb1 -24.326973 -0.000000 -32.862282
LeftUpLeg 12.735243 13.509984 11.797139
LeftLeg 21.455640 -0.000000 -0.000000
LeftFoot -17.297882 -7.384077 0.818365
LeftToeBase 10.713545 -0.000000 -0.000000
RightUpLeg -86.267507 12.803963 24.308555
RightLeg 128.513476 -0.000000 -0.000000
RightFoot -0.429877 -15.656016 4.730157
RightToeBase -0.383327 -0.000000 0.000000
545
root 11.681223 35.823761 -18.058082 148.600977 -50.553525 -162.858707
Spine 42.376711 -20.028060 7.978966
Head 23.456203 9.327137 24.141362
LeftShoulder 2.672859 -7.776131 25.193218
LeftArm 68.760744 -14.483644 -61.989761
LeftForeArm -30.463920 0.000000 40.374349
LeftHand 5.004504 -0.000000 21.028721
LeftHandThumb1 -26.253704 0.000000 33.147579
RightShoulder -14.250601 -8.296989 -4.291571
RightArm 18.997737 -38.028319 71.517336
RightForeArm -7.946721 0.000000 31.731510
RightHand -11.695091 -0.000000 11.615510
RightHandThumb1 -24.326973 -0.000000 -32.862282
LeftUpLeg 12.910783 13.557723 11.697383
LeftLeg 21.188032 -0.000000 -0.000000
LeftFoot -17.607265 -7.162056 0.674759
LeftToeBase 11.157056 -0.000000 -0.000000
RightUpLeg -86.195473 12.882599 24.199094
RightLeg 128.547130 -0.000000 -0.000000
RightFoot -0.544867 -15.666038 4.841403
RightToeBase -0.317564 -0.000000 0.000000
546
root 11.675434 35.794478 -18.052844 148.830529 -50.294117 -163.094140
Spine 42.228191 -19.914668 7.922581
Head 23.656451 9.376277 24.003120
LeftShoulder 2.604955 -7.818314 25.103880
LeftArm 68.461485 -14.488524 -61.944476
LeftForeArm -30.393094 -0.000000 40.383258
LeftHand 5.001703 -0.000000 21.025198
LeftHandThumb1 -26.253704 0.000000 33.147579
RightShoulder -14.417720 -8.420765 -4.221052
RightArm 19.071491 -38.093531 71.464976
RightForeArm -7.876284 -0.000000 31.745175
RightHand -11.808450 0.000000 11.541935
RightHandThumb1 -24.326973 -0.000000 -32.862282
LeftUpLeg 13.019261 13.650809 11.587508
LeftLeg 21.050703 -0.000000 -0.000000
LeftFoot -17.889561 -6.868626 0.675868
LeftToeBase 11.394427 -0.000000 -0.000000
RightUpLeg -86.083033 12.899652 24.084127
RightLeg 128.603325 -0.000000 -0.000000
RightFoot -0.654988 -15.717523 5.002367
RightToeBase -0.182000 -0.000000 0.000000
